<?xml version="1.0" encoding="utf-8"?>
<!-- Generator: Adobe Illustrator 23.0.0, SVG Export Plug-In . SVG Version: 6.00 Build 0)  -->
<svg version="1.1" id="Layer_1" xmlns="http://www.w3.org/2000/svg" xmlns:xlink="http://www.w3.org/1999/xlink" x="0px" y="0px"
	 viewBox="0 0 36 36" style="enable-background:new 0 0 36 36;" xml:space="preserve">
<style type="text/css">
	.st0{fill:#FFFFFF;}
	.st1{fill:#377DFF;}
</style>
<title>logo</title>
<path class="st0" d="M18,0h11.4C33,0,36,3,36,6.6c0,0,0,0,0,0V18c0,9.9-8.1,18-18,18l0,0C8.1,36,0,27.9,0,18l0,0C0,8.1,8.1,0,18,0z"
	/>
<path class="st1" d="M17,26.4c-2.1-0.1-4.1-0.5-6-1.3v-4.5c1.1,0.6,2.3,1,3.6,1.4c1.1,0.3,2.2,0.5,3.4,0.5c0.6,0,1.2-0.1,1.8-0.3
	c0.4-0.2,0.6-0.5,0.6-0.9c0-0.3-0.2-0.6-0.4-0.8c-0.4-0.3-0.9-0.5-1.3-0.7c-0.6-0.3-1.5-0.6-2.6-1c-1-0.3-2-0.8-2.9-1.4
	c-0.7-0.5-1.2-1.1-1.6-1.8c-0.4-0.8-0.5-1.6-0.5-2.5c-0.1-1.3,0.5-2.6,1.5-3.5C13.8,8.6,15.4,8,17,8V6h3v1.9c2,0.1,4,0.6,5.8,1.3
	l-1.7,3.9c-1.7-0.8-3.6-1.2-5.5-1.3c-0.6,0-1.1,0.1-1.6,0.3c-0.3,0.2-0.5,0.5-0.5,0.8c0,0.3,0.1,0.6,0.3,0.8
	c0.4,0.3,0.8,0.5,1.2,0.7c0.6,0.2,1.3,0.5,2.3,0.8c1.6,0.4,3.1,1.2,4.3,2.3c0.9,0.9,1.4,2.1,1.3,3.4c0.1,1.4-0.5,2.8-1.5,3.8
	c-1.3,1.1-2.8,1.7-4.5,1.8V29h-3L17,26.4z"/>
</svg>
